<?xml version="1.0" encoding="utf-8"?>
<!-- Generator: Adobe Illustrator 22.0.1, SVG Export Plug-In . SVG Version: 6.00 Build 0)  -->
<svg version="1.1" id="Layer_1" xmlns="http://www.w3.org/2000/svg" xmlns:xlink="http://www.w3.org/1999/xlink" x="0px" y="0px"
	 viewBox="0 0 1024 1024" style="enable-background:new 0 0 1024 1024;" xml:space="preserve">
<style type="text/css">
	.st0{stroke:#000000;stroke-width:20.8796;stroke-miterlimit:10;}
	.st1{stroke:#FFFFFF;stroke-width:20.8796;stroke-miterlimit:10;}
	.st2{fill:#FFFFFF;}
	.st3{fill:none;stroke:#000000;stroke-width:26.0995;stroke-miterlimit:10;}
	.st4{fill:#FFFFFF;stroke:#000000;stroke-width:9.792;stroke-miterlimit:10;}
</style>
<g>
	<path class="st0" d="M94.9,271.3v477.8c0,1.8,1,3.5,2.6,4.5l413.8,238.9c1.6,0.9,3.6,0.9,5.1,0l413.8-238.9
		c1.6-0.9,2.6-2.6,2.6-4.5V271.3c0-1.8-1-3.5-2.6-4.5L516.4,28c-1.6-0.9-3.6-0.9-5.1,0L97.5,266.9C95.9,267.8,94.9,269.5,94.9,271.3
		z"/>
	<path class="st1" d="M119.4,285.4v449.5c0,1.8,1,3.5,2.6,4.5l389.3,224.7c1.6,0.9,3.6,0.9,5.1,0l389.3-224.7
		c1.6-0.9,2.6-2.6,2.6-4.5V285.4c0-1.8-1-3.5-2.6-4.5L516.4,56.2c-1.6-0.9-3.6-0.9-5.1,0L122,281
		C120.4,281.9,119.4,283.6,119.4,285.4z"/>
	<polygon class="st2" points="513.8,498.1 502.1,491.4 123.6,272.8 113.2,290.9 492.9,510.2 502.1,515.5 502.1,529 502.1,965.6 
		522.9,965.6 522.9,527.5 522.9,517 534.7,510.2 914.4,290.9 904,272.8 522.9,492.9 	"/>
</g>
<circle class="st3" cx="512.5" cy="511.5" r="498.5"/>
<circle class="st4" cx="512.1" cy="511.9" r="366"/>
<g id="Layer_2">
	<g>
		<path d="M513.8,667.3c141,0,255.4-114.3,255.4-255.4c0-19.8-2.3-39-6.5-57.5c-26.1,113.3-127.6,197.8-248.9,197.8
			S291,467.7,265,354.4c-4.3,18.5-6.5,37.7-6.5,57.5C258.4,553,372.8,667.3,513.8,667.3z"/>
		<path class="st2" d="M513.8,508.8c31.7,0,57.5-25.8,57.5-57.5s-25.8-57.5-57.5-57.5s-57.5,25.8-57.5,57.5S482.1,508.8,513.8,508.8
			z"/>
		<path d="M513.8,522.8c39.5,0,71.6-32.1,71.6-71.6s-32.1-71.6-71.6-71.6s-71.6,32.1-71.6,71.6S474.3,522.8,513.8,522.8z
			 M513.8,393.7c31.7,0,57.5,25.8,57.5,57.5s-25.8,57.5-57.5,57.5s-57.5-25.8-57.5-57.5S482.1,393.7,513.8,393.7z"/>
		<circle cx="515.2" cy="721.8" r="39.3"/>
	</g>
</g>
</svg>
